<?xml version="1.0" encoding="utf-8" ?>
<svg baseProfile="tiny" height="400" version="1.2" viewBox="0 0 400 400" width="400" xmlns="http://www.w3.org/2000/svg" xmlns:ev="http://www.w3.org/2001/xml-events" xmlns:xlink="http://www.w3.org/1999/xlink"><defs /><path d="M200,200 " fill="none" stroke="black" /><path d="M200,200  L206.26904346733158,223.05889730481704" fill="none" stroke="black" /><path d="M206.26904346733158,223.05889730481704  L211.32891913938985,225.51252026072316 L239.44079451090474,232.59532354168536" fill="none" stroke="black" /><path d="M239.44079451090474,232.59532354168536  L251.26450931511584,254.81474825421503 L256.4379920398797,260.9141892329835 L284.1344407371254,283.61261936778453" fill="none" stroke="black" /><path d="M284.1344407371254,283.61261936778453  L281.84458585690686,257.6643208776458" fill="none" stroke="black" /><path d="M281.84458585690686,257.6643208776458  L299.45138815475957,268.2188000918195" fill="none" stroke="black" /><path d="M299.45138815475957,268.2188000918195  L300.65398021071275,283.4792953362343" fill="none" stroke="black" /><path d="M300.65398021071275,283.4792953362343  L303.90127889614826,276.8798709828368" fill="none" stroke="black" /><path d="M303.90127889614826,276.8798709828368  L302.3952651784113,273.4849127744295" fill="none" stroke="black" /><path d="M302.3952651784113,273.4849127744295  L321.4214102375962,304.13084418989666" fill="none" stroke="black" /><path d="M321.4214102375962,304.13084418989666  L359.0821233137996,350.85272279800904" fill="none" stroke="black" /><path d="M359.0821233137996,350.85272279800904  L377.5547114556029,354.7784544230573" fill="none" stroke="black" /><path d="M377.5547114556029,354.7784544230573  L351.20123256408993,328.58596916824496" fill="none" stroke="black" /><path d="M351.20123256408993,328.58596916824496  L344.7682973523493,323.1071585248872" fill="none" stroke="black" /><path d="M344.7682973523493,323.1071585248872  L374.6418456827274,354.3555879344839" fill="none" stroke="black" /><path d="M374.6418456827274,354.3555879344839  L393.0000804670722,356.9894420936408" fill="none" stroke="black" /><path d="M393.0000804670722,356.9894420936408  L406.5571167121242,364.16490800839443" fill="none" stroke="black" /><path d="M406.5571167121242,364.16490800839443  L410.30695947362915,357.05506911600366 L409.6537962161131,348.07032036552636 L423.35799561951694,350.7413488619303" fill="none" stroke="black" /><path d="M423.35799561951694,350.7413488619303  L447.8982272345824,407.133385676927 L452.3938902421432,407.5557500111468 L458.97852260788204,444.4893442889618" fill="none" stroke="black" /><path d="M458.97852260788204,444.4893442889618  L411.59238695662265,435.15489148266334" fill="none" stroke="black" /><path d="M411.59238695662265,435.15489148266334  L420.89616542690663,432.5795005557718" fill="none" stroke="black" /><path d="M420.89616542690663,432.5795005557718  L436.0982688216434,414.18628211669255" fill="none" stroke="black" /><path d="M436.0982688216434,414.18628211669255  L411.6972559830939,416.07061586535406" fill="none" stroke="black" /><path d="M411.6972559830939,416.07061586535406  L405.705134909413,414.73062174677074" fill="none" stroke="black" /><path d="M405.705134909413,414.73062174677074  L440.25036605632215,444.41960329186765" fill="none" stroke="black" /><path d="M440.25036605632215,444.41960329186765  L446.5301936738289,430.94177192426525" fill="none" stroke="black" /><path d="M446.5301936738289,430.94177192426525  L464.25619533258265,416.68139234215914" fill="none" stroke="black" /><path d="M464.25619533258265,416.68139234215914  L462.79600261620243,399.3157126682208" fill="none" stroke="black" /><path d="M462.79600261620243,399.3157126682208  L456.12492671039973,410.25366490358914" fill="none" stroke="black" /><path d="M456.12492671039973,410.25366490358914  L474.9016149315696,401.6444531614584" fill="none" stroke="black" /><path d="M474.9016149315696,401.6444531614584  L485.74707838367544,391.8253735814085" fill="none" stroke="black" /><path d="M485.74707838367544,391.8253735814085  L463.47652125565685,391.40858078046153" fill="none" stroke="black" /><path d="M463.47652125565685,391.40858078046153  L468.1500953509751,412.68114907894386" fill="none" stroke="black" /><path d="M468.1500953509751,412.68114907894386  L451.46546650201884,381.52701845913305" fill="none" stroke="black" /><path d="M451.46546650201884,381.52701845913305  L444.3883103583021,411.8593174253987" fill="none" stroke="black" /><path d="M444.3883103583021,411.8593174253987  L452.46278670619637,457.2158305793781 L445.38327733454094,448.5930756853488" fill="none" stroke="black" /><path d="M445.38327733454094,448.5930756853488  L422.272550688501,455.7558362335907" fill="none" stroke="black" /><path d="M422.272550688501,455.7558362335907  L419.10517470756326,434.8457479415162" fill="none" stroke="black" /><path d="M419.10517470756326,434.8457479415162  L415.63599884647545,468.0616084371162" fill="none" stroke="black" /><path d="M415.63599884647545,468.0616084371162  L444.57543607730963,474.54448239706824" fill="none" stroke="black" /><path d="M444.57543607730963,474.54448239706824  L442.6195632617133,476.08859127107525" fill="none" stroke="black" /><path d="M442.6195632617133,476.08859127107525  L447.9069858507706,496.7950229937928" fill="none" stroke="black" /><path d="M447.9069858507706,496.7950229937928  L475.88923348144124,536.876391719551" fill="none" stroke="black" /><path d="M475.88923348144124,536.876391719551  L504.30541252086135,566.8457751495788" fill="none" stroke="black" /><path d="M504.30541252086135,566.8457751495788  L510.3028763786174,579.5311636805467" fill="none" stroke="black" /><path d="M510.3028763786174,579.5311636805467  L502.18048480119955,587.1311589387643" fill="none" stroke="black" /><path d="M502.18048480119955,587.1311589387643  L507.22304583504746,560.6914002215627" fill="none" stroke="black" /><path d="M507.22304583504746,560.6914002215627  L530.579491470779,570.5743257076983" fill="none" stroke="black" /><path d="M530.579491470779,570.5743257076983  L562.0945264051196,573.0178802801086" fill="none" stroke="black" /><path d="M562.0945264051196,573.0178802801086  L575.2774860473156,593.3166110515002" fill="none" stroke="black" /><path d="M575.2774860473156,593.3166110515002  L587.1061140346877,597.0010874055755" fill="none" stroke="black" /><path d="M587.1061140346877,597.0010874055755  L596.3617744787233,611.9248919883539" fill="none" stroke="black" /><path d="M596.3617744787233,611.9248919883539  L582.4553488096105,603.370209311562" fill="none" stroke="black" /><path d="M582.4553488096105,603.370209311562  L582.0643626759932,603.941949828651" fill="none" stroke="black" /><path d="M582.0643626759932,603.941949828651  L589.1960821665683,572.9257639630018" fill="none" stroke="black" /><path d="M589.1960821665683,572.9257639630018  L589.747268251912,556.9163634733385" fill="none" stroke="black" /><path d="M589.747268251912,556.9163634733385  L605.3553397828567,580.2966032425003" fill="none" stroke="black" /><path d="M605.3553397828567,580.2966032425003  L608.0966827714175,602.2516509045104" fill="none" stroke="black" /><path d="M608.0966827714175,602.2516509045104  L615.7159389308132,608.0761314143172" fill="none" stroke="black" /><path d="M615.7159389308132,608.0761314143172  L646.6551451626451,624.9025490076945" fill="none" stroke="black" /><path d="M646.6551451626451,624.9025490076945  L676.3230008682184,620.7556536397207" fill="none" stroke="black" /><path d="M676.3230008682184,620.7556536397207  L645.8307115121739,616.3294104495069" fill="none" stroke="black" /><path d="M645.8307115121739,616.3294104495069  L684.9829893392069,623.2846973296238 L699.8131737115586,615.2708859509959" fill="none" stroke="black" /><path d="M699.8131737115586,615.2708859509959  L688.5852426879698,628.2831830276951" fill="none" stroke="black" /><path d="M688.5852426879698,628.2831830276951  L707.4201000326528,646.6244434769735" fill="none" stroke="black" /><path d="M707.4201000326528,646.6244434769735  L739.2962889215981,660.0805613579107 L787.129746956002,687.8214211142965" fill="none" stroke="black" /><path d="M787.129746956002,687.8214211142965  L774.9932767184032,672.4040127271811" fill="none" stroke="black" /><path d="M774.9932767184032,672.4040127271811  L797.2317503862935,695.8842734359464 L810.7433123324087,759.5383569382464" fill="none" stroke="black" /><path d="M810.7433123324087,759.5383569382464  L821.6710019255121,796.3926189396074" fill="none" stroke="black" /><path d="M821.6710019255121,796.3926189396074  L839.4406353470729,846.2263486083928" fill="none" stroke="black" /><path d="M839.4406353470729,846.2263486083928  L839.5061060639847,851.8604785103726" fill="none" stroke="black" /><path d="M839.5061060639847,851.8604785103726  L835.0317945897726,874.1025335259852 L818.9829409382866,852.4773236387523" fill="none" stroke="black" /><path d="M818.9829409382866,852.4773236387523  L795.4068813963137,840.3060346242339" fill="none" stroke="black" /><path d="M795.4068813963137,840.3060346242339  L831.6429284213382,853.7177840644016" fill="none" stroke="black" /><path d="M831.6429284213382,853.7177840644016  L846.869863656357,875.6752407686957" fill="none" stroke="black" /><path d="M846.869863656357,875.6752407686957  L877.5834928654727,892.2490933254794 L822.4659462590116,873.5930605569022 L817.2894154997115,863.6388059365755" fill="none" stroke="black" /><path d="M817.2894154997115,863.6388059365755  L809.2050376501583,862.5195466766402" fill="none" stroke="black" /><path d="M809.2050376501583,862.5195466766402  L816.8566400031232,859.4062444703758" fill="none" stroke="black" /><path d="M816.8566400031232,859.4062444703758  L792.6054668223164,833.5601866211708" fill="none" stroke="black" /><path d="M792.6054668223164,833.5601866211708  L809.5334668074304,844.5183488628677" fill="none" stroke="black" /><path d="M809.5334668074304,844.5183488628677  L789.603743547517,822.9686055612481" fill="none" stroke="black" /><path d="M789.603743547517,822.9686055612481  L786.4948319456774,808.6879672722723" fill="none" stroke="black" /><path d="M786.4948319456774,808.6879672722723  L791.6011535911928,817.3925789961027" fill="none" stroke="black" /><path d="M791.6011535911928,817.3925789961027  L784.358777298545,813.2626216732914" fill="none" stroke="black" /><path d="M784.358777298545,813.2626216732914  L770.0858190556503,811.6033553659554" fill="none" stroke="black" /><path d="M770.0858190556503,811.6033553659554  L779.3675821511395,820.881615276219" fill="none" stroke="black" /><path d="M779.3675821511395,820.881615276219  L790.0568510341952,848.4055389651166 L789.2464265526778,874.1502994533954 L778.037075008826,851.7270161277056 L768.5597041497571,859.7578487268627 L774.2284917554599,872.7906807402261 L772.3013232157317,847.1889474300135 L777.5413418012599,839.5156687814913 L769.170622097716,833.9583913784346" fill="none" stroke="black" /><path d="M769.170622097716,833.9583913784346  L784.4995193820761,853.8860032489733" fill="none" stroke="black" /><path d="M784.4995193820761,853.8860032489733  L812.1329213124677,897.4197457365193" fill="none" stroke="black" /><path d="M812.1329213124677,897.4197457365193  L845.4507281419785,915.2550875956163 L853.389624085568,949.5678271332665" fill="none" stroke="black" /><path d="M853.389624085568,949.5678271332665  L879.1610250970423,995.0044562158841 L901.8218876646789,990.5501500689367" fill="none" stroke="black" /><path d="M901.8218876646789,990.5501500689367  L926.9970741398305,1002.7235511195969" fill="none" stroke="black" /><path d="M926.9970741398305,1002.7235511195969  L935.9094222444052,991.797317401546" fill="none" stroke="black" /><path d="M935.9094222444052,991.797317401546  L908.6279701896112,994.1499621596492" fill="none" stroke="black" /><path d="M908.6279701896112,994.1499621596492  L900.2228579907695,989.3027945112368 L902.9144342314704,968.2429661147407" fill="none" stroke="black" /><path d="M902.9144342314704,968.2429661147407  L898.58848698488,969.2496285412803 L918.9729189422548,988.9721061477201" fill="none" stroke="black" /><path d="M918.9729189422548,988.9721061477201  L900.3188612304318,957.660541087225 L911.9670411046033,990.5969023527704" fill="none" stroke="black" /><path d="M911.9670411046033,990.5969023527704  L895.1385384593317,986.343217399846" fill="none" stroke="black" /><path d="M895.1385384593317,986.343217399846  L897.8953624149942,1002.8855756906984" fill="none" stroke="black" /><path d="M897.8953624149942,1002.8855756906984  L917.2075009110995,1011.6083914321307" fill="none" stroke="black" /><path d="M917.2075009110995,1011.6083914321307  L929.8758402672094,1030.3023871508035" fill="none" stroke="black" /><path d="M929.8758402672094,1030.3023871508035  L944.624116742399,1030.1851090843745" fill="none" stroke="black" /><path d="M944.624116742399,1030.1851090843745  L946.3587452893518,1024.6066374880006" fill="none" stroke="black" /><path d="M946.3587452893518,1024.6066374880006  L941.8883435452576,1013.5762879755764" fill="none" stroke="black" /><path d="M941.8883435452576,1013.5762879755764  L950.181081423923,990.3263885214036 L927.7636597270854,977.906788510112" fill="none" stroke="black" /><path d="M927.7636597270854,977.906788510112  L959.7076324191308,987.5489627790703" fill="none" stroke="black" /><path d="M959.7076324191308,987.5489627790703  L971.5167291490143,992.3797514503773" fill="none" stroke="black" /><path d="M971.5167291490143,992.3797514503773  L995.9843521110055,972.0683640422213 L996.9035251629631,942.344595058454" fill="none" stroke="black" /><path d="M996.9035251629631,942.344595058454  L1007.3668581744295,977.0806187033684" fill="none" stroke="black" /><path d="M1007.3668581744295,977.0806187033684  L954.8415568656859,958.1150364697731" fill="none" stroke="black" /><path d="M954.8415568656859,958.1150364697731  L961.5383797671112,950.2091720731448" fill="none" stroke="black" /><path d="M961.5383797671112,950.2091720731448  L966.3632047699753,956.1300961791637 L976.4029985544506,962.8478172110799" fill="none" stroke="black" /><path d="M976.4029985544506,962.8478172110799  L972.4075587944412,980.7098600178651" fill="none" stroke="black" /><path d="M972.4075587944412,980.7098600178651  L938.5915999735086,963.8613237275403" fill="none" stroke="black" /><path d="M938.5915999735086,963.8613237275403  L946.8230085606488,987.9985887011395" fill="none" stroke="black" /><path d="M946.8230085606488,987.9985887011395  L951.5641014365158,985.2545378670127" fill="none" stroke="black" /><path d="M951.5641014365158,985.2545378670127  L947.181632960678,990.8808382400898" fill="none" stroke="black" /><path d="M947.181632960678,990.8808382400898  L957.5883031282102,1004.7747887566337 L960.5399910203311,1005.8907274104254" fill="none" stroke="black" /><path d="M960.5399910203311,1005.8907274104254  L962.6068541319535,1010.8798398226985" fill="none" stroke="black" /><path d="M962.6068541319535,1010.8798398226985  L968.9293876062544,1009.2211755987712" fill="none" stroke="black" /><path d="M968.9293876062544,1009.2211755987712  L966.1595442876138,1007.19600354948 L975.3851265112074,1027.7359610018714" fill="none" stroke="black" /><path d="M975.3851265112074,1027.7359610018714  L991.5539629279037,1018.6891014379295" fill="none" stroke="black" /><path d="M991.5539629279037,1018.6891014379295  L1015.0578381945986,1028.083660505177" fill="none" stroke="black" /><path d="M1015.0578381945986,1028.083660505177  L1007.4419520069517,1025.904610762667" fill="none" stroke="black" /><path d="M1007.4419520069517,1025.904610762667  L1003.9441733034398,1036.552787858479" fill="none" stroke="black" /><path d="M1003.9441733034398,1036.552787858479  L1010.7846202146967,1026.8345976917362 L1006.0377255806907,1039.513792618062" fill="none" stroke="black" /><path d="M1006.0377255806907,1039.513792618062  L1021.2564288619246,1045.2365386276515" fill="none" stroke="black" /><path d="M1021.2564288619246,1045.2365386276515  L1028.2830216241773,1065.8659203858062" fill="none" stroke="black" /><path d="M1028.2830216241773,1065.8659203858062  L1041.4833285455002,1071.2136294532509 L1052.3328179767593,1079.02384289408 L1068.8024681847114,1105.8163416064574" fill="none" stroke="black" /><path d="M1068.8024681847114,1105.8163416064574  L1088.140533094492,1112.3010504769964" fill="none" stroke="black" /><path d="M1088.140533094492,1112.3010504769964  L1077.2060088788596,1108.6312220296534 L1073.597950375435,1139.348562295117" fill="none" stroke="black" /><path d="M1073.597950375435,1139.348562295117  L1082.717057251393,1132.2759422270792" fill="none" stroke="black" /><path d="M1082.717057251393,1132.2759422270792  L1121.6843798975838,1139.200748006496" fill="none" stroke="black" /><path d="M1121.6843798975838,1139.200748006496  L1124.8027893011342,1158.7669649615882" fill="none" stroke="black" /><path d="M1124.8027893011342,1158.7669649615882  L1123.5079311377688,1144.3726552311891" fill="none" stroke="black" /><path d="M1123.5079311377688,1144.3726552311891  L1137.619972651287,1138.3336629880384" fill="none" stroke="black" /><path d="M1137.619972651287,1138.3336629880384  L1147.6486094294344,1157.6469627167348" fill="none" stroke="black" /><path d="M1147.6486094294344,1157.6469627167348  L1149.150746572225,1140.4681711672201" fill="none" stroke="black" /><path d="M1149.150746572225,1140.4681711672201  L1154.0456353836887,1131.3932621070965" fill="none" stroke="black" /><path d="M1154.0456353836887,1131.3932621070965  L1142.114628980627,1141.2337130896292" fill="none" stroke="black" /><path d="M1142.114628980627,1141.2337130896292  L1165.696881344627,1156.980901176009" fill="none" stroke="black" /><path d="M1165.696881344627,1156.980901176009  L1133.04724799482,1150.710356050896" fill="none" stroke="black" /><path d="M1133.04724799482,1150.710356050896  L1129.291857176101,1160.2538286280815" fill="none" stroke="black" /><path d="M1129.291857176101,1160.2538286280815  L1128.9220988448967,1180.8036939071028" fill="none" stroke="black" /><path d="M1128.9220988448967,1180.8036939071028  L1110.347610382097,1180.88384893315" fill="none" stroke="black" /><path d="M1110.347610382097,1180.88384893315  L1101.0174826113112,1188.1676990939275" fill="none" stroke="black" /><path d="M1101.0174826113112,1188.1676990939275  L1113.0274779420888,1189.9086729778187" fill="none" stroke="black" /><path d="M1113.0274779420888,1189.9086729778187  L1100.5546788403417,1175.9372815700744 L1105.6666328063518,1146.881882543122" fill="none" stroke="black" /><path d="M1105.6666328063518,1146.881882543122  L1104.9289734753393,1155.9439821882536 L1130.4702310936955,1171.9515100462004 L1177.7739994634587,1196.3448811412231" fill="none" stroke="black" /><path d="M1177.7739994634587,1196.3448811412231  L1164.9403213119433,1224.1038239973327" fill="none" stroke="black" /><path d="M1164.9403213119433,1224.1038239973327  L1159.9440138898842,1235.6056109072124" fill="none" stroke="black" /><path d="M1159.9440138898842,1235.6056109072124  L1173.3705323236363,1233.7064226689297 L1191.2209377196352,1252.9889624455573" fill="none" stroke="black" /><path d="M1191.2209377196352,1252.9889624455573  L1214.8020933101539,1269.9091691174685" fill="none" stroke="black" /><path d="M1214.8020933101539,1269.9091691174685  L1243.3043574954493,1302.2200730711559 L1256.170206832586,1322.950187176017" fill="none" stroke="black" /><path d="M1256.170206832586,1322.950187176017  L1247.9884377707817,1315.3949344953865" fill="none" stroke="black" /><path d="M1247.9884377707817,1315.3949344953865  L1263.8564276686734,1351.5218759277122" fill="none" stroke="black" /><path d="M1263.8564276686734,1351.5218759277122  L1286.5554548420273,1366.5407076059678" fill="none" stroke="black" /><path d="M1286.5554548420273,1366.5407076059678  L1306.8679922210115,1400.7904437466889" fill="none" stroke="black" /><path d="M1306.8679922210115,1400.7904437466889  L1334.7880220023742,1414.7109946486905 L1336.9787839784556,1414.029219264615" fill="none" stroke="black" /><path d="M1336.9787839784556,1414.029219264615  L1365.0008648752346,1398.389806088293" fill="none" stroke="black" /><path d="M1365.0008648752346,1398.389806088293  L1339.2309882270238,1375.0126146362945" fill="none" stroke="black" /><path d="M1339.2309882270238,1375.0126146362945  L1359.8851939185818,1410.4099085038997" fill="none" stroke="black" /><path d="M1359.8851939185818,1410.4099085038997  L1360.4678531189527,1428.0385617953386 L1364.5661968840336,1456.6043729430203" fill="none" stroke="black" /><path d="M1364.5661968840336,1456.6043729430203  L1390.550777268406,1525.768582269708" fill="none" stroke="black" /><path d="M1390.550777268406,1525.768582269708  L1359.229772327936,1515.7503076639468" fill="none" stroke="black" /><path d="M1359.229772327936,1515.7503076639468  L1355.5097548851538,1515.2531225811033" fill="none" stroke="black" /><path d="M1355.5097548851538,1515.2531225811033  L1368.3309582232944,1509.7035715132022 L1383.3732322017017,1547.3178289562861" fill="none" stroke="black" /><path d="M1383.3732322017017,1547.3178289562861  L1399.777566744272,1593.3324058357903" fill="none" stroke="black" /><path d="M1399.777566744272,1593.3324058357903  L1431.8517547168187,1626.5446819823192" fill="none" stroke="black" /><path d="M1431.8517547168187,1626.5446819823192  L1413.1049978850024,1607.0696703497495" fill="none" stroke="black" /><path d="M1413.1049978850024,1607.0696703497495  L1409.6192883357785,1617.2885241346721" fill="none" stroke="black" /><path d="M1409.6192883357785,1617.2885241346721  L1429.7172068100404,1584.1165582575275" fill="none" stroke="black" /><path d="M1429.7172068100404,1584.1165582575275  L1419.1415233639314,1580.353673951175" fill="none" stroke="black" /><path d="M1419.1415233639314,1580.353673951175  L1441.9165975518893,1588.7245563023876" fill="none" stroke="black" /><path d="M1441.9165975518893,1588.7245563023876  L1474.8625533807474,1597.2495682707986 L1494.0858464885277,1617.6010716607648" fill="none" stroke="black" /><path d="M1494.0858464885277,1617.6010716607648  L1501.5627490756542,1638.4596729523887" fill="none" stroke="black" /><path d="M1501.5627490756542,1638.4596729523887  L1520.2817325218653,1647.0769650349844" fill="none" stroke="black" /><path d="M1520.2817325218653,1647.0769650349844  L1525.5875947126253,1634.2971065303864" fill="none" stroke="black" /><path d="M1525.5875947126253,1634.2971065303864  L1534.3987591374175,1664.7044645305448 L1539.7146004310093,1653.7876960741892" fill="none" stroke="black" /><path d="M1539.7146004310093,1653.7876960741892  L1514.3856306099947,1642.0405284957078" fill="none" stroke="black" /><path d="M1514.3856306099947,1642.0405284957078  L1489.480605381143,1651.1604676634595" fill="none" stroke="black" /><path d="M1489.480605381143,1651.1604676634595  L1499.4548889755863,1659.352579765911 L1527.5542502406367,1726.6457202265062" fill="none" stroke="black" /><path d="M1527.5542502406367,1726.6457202265062  L1551.0846511868947,1733.1911035421776 L1556.723089261526,1772.5550747677212" fill="none" stroke="black" /><path d="M1556.723089261526,1772.5550747677212  L1557.7026692669237,1779.55025809955" fill="none" stroke="black" /><path d="M1557.7026692669237,1779.55025809955  L1555.661843911538,1772.264103673691 L1570.5544004773224,1804.997435416665" fill="none" stroke="black" /><path d="M1570.5544004773224,1804.997435416665  L1562.1254543175514,1803.2716453470198" fill="none" stroke="black" /><path d="M1562.1254543175514,1803.2716453470198  L1566.5889780694654,1813.9097642110294" fill="none" stroke="black" /><path d="M1566.5889780694654,1813.9097642110294  L1592.2459807659986,1856.3418794014167" fill="none" stroke="black" /><path d="M1592.2459807659986,1856.3418794014167  L1579.7418115637074,1836.7456024886378" fill="none" stroke="black" /><path d="M1579.7418115637074,1836.7456024886378  L1571.6161798110768,1855.636110411206" fill="none" stroke="black" /><path d="M1571.6161798110768,1855.636110411206  L1565.4979413764993,1852.4501524895243" fill="none" stroke="black" /><path d="M1565.4979413764993,1852.4501524895243  L1571.2421961068728,1841.7196052748423 L1588.4064372381895,1870.8017598204008" fill="none" stroke="black" /><path d="M1588.4064372381895,1870.8017598204008  L1591.1424653542324,1880.4369003820175 L1590.430967299612,1884.4585668801958" fill="none" stroke="black" /><path d="M1590.430967299612,1884.4585668801958  L1579.917227799306,1886.428145326208 L1603.7551229685298,1903.3003308961618" fill="none" stroke="black" /><path d="M1603.7551229685298,1903.3003308961618  L1624.2524871271735,1903.5884637320592" fill="none" stroke="black" /><path d="M1624.2524871271735,1903.5884637320592  L1636.800831288783,1844.7504950989176" fill="none" stroke="black" /><path d="M1636.800831288783,1844.7504950989176  L1650.377513711192,1832.3351097791015" fill="none" stroke="black" /><path d="M1650.377513711192,1832.3351097791015  L1653.8374072095012,1833.25919128556 L1661.5289643719525,1848.6496332658012" fill="none" stroke="black" /><path d="M1661.5289643719525,1848.6496332658012  L1658.555695074609,1841.673010944759" fill="none" stroke="black" /></svg>